<?xml version="1.0" standalone="no"?>
<!DOCTYPE svg PUBLIC "-//W3C//DTD SVG 20010904//EN"
 "http://www.w3.org/TR/2001/REC-SVG-20010904/DTD/svg10.dtd">
<svg version="1.0" xmlns="http://www.w3.org/2000/svg"
 width="1024.000000pt" height="1024.000000pt" viewBox="0 0 1024.000000 1024.000000"
 preserveAspectRatio="xMidYMid meet">

<g transform="translate(0.000000,1024.000000) scale(0.100000,-0.100000)"
fill="#000000" stroke="none">
<path d="M4910 8830 c-361 -21 -744 -101 -1069 -222 -1155 -429 -2016 -1384
-2321 -2573 -80 -311 -112 -579 -113 -920 0 -344 36 -626 119 -945 329 -1260
1313 -2270 2562 -2629 1152 -330 2381 -95 3319 636 724 564 1213 1367 1377
2263 43 235 59 415 59 675 0 248 -9 371 -44 585 -186 1165 -904 2162 -1954
2715 -576 304 -1278 454 -1935 415z m509 -1786 c417 -61 747 -226 1062 -532
335 -324 527 -696 585 -1132 12 -94 15 -168 11 -295 -8 -243 -42 -377 -144
-576 -142 -277 -390 -508 -673 -629 -190 -80 -469 -123 -662 -100 -232 27
-397 109 -561 279 -119 124 -181 235 -211 383 -13 64 -16 154 -16 512 l0 435
-137 3 -138 3 -3 213 -2 212 404 0 405 0 3 -617 3 -618 27 -55 c35 -71 117
-153 188 -188 45 -22 71 -27 151 -30 208 -9 385 55 551 198 266 228 349 536
253 936 -57 240 -170 444 -349 631 -161 169 -335 288 -521 358 l-60 23 -27 73
c-83 224 -283 355 -513 336 -94 -8 -157 -33 -241 -92 -102 -73 -182 -195 -208
-317 -5 -23 -22 -36 -89 -69 -339 -171 -621 -496 -727 -839 -56 -182 -65 -239
-65 -450 0 -149 5 -215 18 -280 69 -326 226 -590 478 -806 233 -200 487 -308
779 -332 47 -4 85 -9 85 -12 0 -3 -47 -117 -105 -253 -95 -226 -106 -247 -128
-247 -44 0 -252 51 -354 86 -282 98 -505 241 -733 469 -322 322 -497 668 -561
1105 -20 141 -15 498 9 625 63 330 180 595 375 845 319 409 755 667 1257 744
128 20 451 20 584 0z m-199 -412 c107 -56 163 -147 164 -267 1 -116 -56 -209
-167 -267 -60 -33 -194 -33 -254 0 -66 35 -110 79 -140 140 -37 75 -38 184 -4
255 28 57 107 130 164 151 63 23 180 17 237 -12z"/>
</g>
</svg>
